<svg aria-hidden="true" xmlns="http://www.w3.org/2000/svg" xmlns:xlink="http://www.w3.org/1999/xlink"><symbol viewBox="0 0 157 38" id="alphabet" xmlns="http://www.w3.org/2000/svg">
<path d="M147.599 23.4466V13.2466H144.073V9.87219H147.599V3.89024H151.359V9.87219H156.217V13.2466H151.359V23.2166C151.359 25.4406 152.299 26.3609 154.023 26.3609C154.728 26.3609 155.198 26.2842 155.747 26.0541L157.078 29.1985C156.217 29.582 155.355 29.7354 154.101 29.7354C149.792 29.7354 147.599 27.4346 147.599 23.4466ZM123.469 19.6887C123.469 14.1669 127.386 9.33535 133.184 9.33535C139.138 9.33535 142.898 13.4 142.898 19.6887C142.898 19.9955 142.82 20.379 142.82 20.379H127.073C127.308 24.5203 130.285 26.7444 133.419 26.7444C135.612 26.7444 137.806 25.9008 138.824 23.3699L142.115 24.7504C140.94 27.5113 138.041 30.0421 133.419 30.0421C127.543 30.0421 123.469 25.5173 123.469 19.6887ZM133.184 12.6331C130.442 12.6331 128.248 14.4737 127.465 17.3113H138.981C138.903 15.6241 137.414 12.6331 133.184 12.6331ZM105.215 26.6677H105.058V29.3519H101.455V0.975952H105.215V9.94889L105.058 12.6331H105.215C106.39 10.8692 108.819 9.25866 112.031 9.25866C117.045 9.25866 121.51 13.7068 121.51 19.612C121.51 25.5173 117.123 29.9654 112.031 29.9654C108.819 30.0421 106.312 28.5083 105.215 26.6677ZM117.672 19.6887C117.672 15.3173 114.695 12.6331 111.326 12.6331C108.035 12.6331 104.98 15.2406 104.98 19.6887C104.98 24.1369 107.957 26.7444 111.326 26.7444C114.695 26.6677 117.672 24.0602 117.672 19.6887ZM79.9885 23.5233C79.9885 19.0752 84.0624 16.6978 88.6846 16.6978C91.3483 16.6978 93.3069 17.4647 94.0903 17.9248V17.388C94.0903 14.4737 91.6617 12.6331 88.9197 12.6331C86.8827 12.6331 84.8458 13.6301 84.1407 15.4707L80.6936 14.0135C81.3987 12.2496 83.749 9.25866 88.763 9.25866C93.6203 9.25866 97.6158 12.0963 97.6158 17.6181V29.3519H94.012V26.6677H93.8553C92.7585 28.2782 90.7216 30.0421 87.3528 30.0421C83.3573 30.0421 79.9885 27.588 79.9885 23.5233ZM94.0903 20.9925C94.0903 20.9925 92.5235 19.6887 89.3114 19.6887C85.3942 19.6887 83.8274 21.7594 83.8274 23.5233C83.8274 25.594 86.021 26.591 87.9796 26.591C90.9566 26.6677 94.0903 24.2135 94.0903 20.9925ZM62.988 9.94889L62.8313 12.6331H62.988C64.0065 10.8692 66.5918 9.25866 69.2555 9.25866C74.3478 9.25866 76.8548 12.6331 76.8548 17.4647V29.3519H73.0943V18.0015C73.0943 13.9369 71.0574 12.6331 68.1587 12.6331C64.9466 12.6331 62.9097 15.6241 62.9097 18.6151V29.3519H59.1492V0.975952H62.9097L62.988 9.94889ZM40.2685 26.6677H40.1118L40.2685 29.3519V37.9414H36.508V9.94889H40.1118V12.6331H40.2685C41.4436 10.8692 43.8723 9.25866 47.0843 9.25866C52.0983 9.25866 56.5639 13.7068 56.5639 19.612C56.5639 25.5173 52.0983 30.0421 47.006 30.0421C43.8723 30.0421 41.3653 28.5083 40.2685 26.6677ZM52.7251 19.6887C52.7251 15.3173 49.748 12.6331 46.3792 12.6331C43.0888 12.6331 40.0334 15.2406 40.0334 19.6887C40.0334 24.1369 43.0105 26.7444 46.3792 26.7444C49.748 26.6677 52.7251 24.0602 52.7251 19.6887ZM28.8303 29.4286H32.5908V0.975952H28.8303V29.4286ZM11.5165 0.975952L0.548401 29.4286H4.7006L7.52096 21.6827H19.7425L22.5629 29.4286H26.6367L15.6687 0.975952H11.5165ZM13.475 5.42407H13.6317L18.4107 18.3083H8.77445L13.475 5.42407Z"/>
</symbol><symbol viewBox="0 0 146 44" id="amazon" xmlns="http://www.w3.org/2000/svg">
<path d="M89.1137 32.5053C79.6946 36.4166 69.497 38.3339 60.2335 38.3339C46.4551 38.3339 33.1437 34.6526 22.3233 28.4406C21.3892 27.9038 20.6886 28.9008 21.4671 29.591C31.4311 38.4105 44.6647 43.779 59.3772 43.779C69.8084 43.779 81.9521 40.4812 90.3593 34.4226C91.6826 33.4256 90.4371 31.8917 89.1137 32.5053Z"/>
<path d="M83.8203 29.0541C83.1197 29.591 83.2754 30.2812 84.0539 30.2045C86.7006 29.8978 92.7724 29.2075 93.8622 30.588C94.9521 31.9684 92.6946 37.4902 91.6826 40.0211C91.3712 40.788 92.0718 41.0947 92.6946 40.5579C97.2096 36.8767 98.3772 29.0541 97.3652 27.9805C96.4311 26.6767 88.5688 25.7564 83.8203 29.0541Z"/>
<path d="M100.168 19.6211C97.5988 18.1639 94.5628 17.7805 91.7605 17.8572L99.3892 7.12031C100.09 6.20001 100.479 5.58648 100.479 5.12633V2.36543C100.479 1.82859 100.09 1.59851 99.6227 1.59851H84.9102C84.4431 1.59851 84.1317 1.98197 84.1317 2.36543V5.58648C84.1317 6.12332 84.5209 6.3534 84.988 6.3534H92.6946L83.8203 18.7775C83.2754 19.5444 83.2754 20.4647 83.2754 21.0015V24.2993C83.2754 24.8361 83.8203 25.2963 84.2874 24.9895C89.2694 22.382 95.2634 22.612 99.7784 24.9895C100.323 25.2963 100.868 24.6827 100.868 24.2993V20.9248C100.868 20.388 100.713 20.0045 100.168 19.6211Z"/>
<path d="M26.2155 25.7564H30.7305C31.2754 25.7564 31.5868 25.3729 31.5868 24.9895V13.0256C31.5868 10.418 31.4311 6.81353 34.7006 6.81353C37.8922 6.81353 37.4251 10.4947 37.4251 13.0256V24.9895C37.4251 25.4496 37.8144 25.7564 38.2036 25.7564H42.7185C43.2635 25.7564 43.5748 25.3729 43.5748 24.9895V13.0256C43.5748 11.7218 43.497 9.8045 44.0419 8.65413C44.509 7.50375 45.5988 6.81353 46.6886 6.81353C48.012 6.81353 49.0239 7.27368 49.2575 8.73082C49.491 9.65112 49.4132 12.0286 49.4132 12.9489V24.9128C49.4132 25.3729 49.8024 25.6797 50.1916 25.6797H54.7066C55.2515 25.6797 55.5629 25.2962 55.5629 24.9128V10.6481C55.5629 8.19398 55.8742 5.43307 54.3952 3.59247C53.1497 1.90525 51.0479 1.06165 49.2575 1.06165C46.6886 1.06165 44.1976 2.4421 43.1078 5.27969C41.8623 2.4421 40.1497 1.06165 37.3473 1.06165C34.6227 1.06165 32.5988 2.4421 31.509 5.27969H31.4311V2.36541C31.4311 1.90525 31.0419 1.67518 30.6527 1.59849H26.5269C25.982 1.59849 25.6706 1.98195 25.6706 2.36541V24.9128C25.4371 25.3729 25.7485 25.6797 26.2155 25.7564Z"/>
<path d="M113.09 1.13831C106.629 1.13831 103.048 6.66011 103.048 13.6391C103.048 20.618 106.629 26.2165 113.09 26.2165C119.317 26.2165 123.287 20.6947 123.287 13.8691C123.365 6.81349 119.784 1.13831 113.09 1.13831ZM113.09 21.5383C109.587 21.5383 109.587 15.633 109.587 12.8721C109.587 10.1112 109.82 5.73981 113.09 5.73981C114.569 5.73981 115.503 6.35334 115.97 7.96387C116.515 9.72778 116.593 12.0285 116.593 13.9458C116.748 16.8601 116.593 21.5383 113.09 21.5383Z"/>
<path d="M138.623 1.13831C135.509 1.13831 133.796 2.67214 132.551 5.73981H132.473V2.28868C132.395 1.90522 132.006 1.67515 131.695 1.67515H127.569C127.102 1.67515 126.79 2.05861 126.713 2.36537V24.9127C126.713 25.3729 127.102 25.6797 127.491 25.6797H131.928C132.473 25.6797 132.784 25.2962 132.784 24.9127V12.7954C132.784 11.2616 132.862 9.88116 133.485 8.50071C134.03 7.42703 135.042 6.7368 136.054 6.7368C139.168 6.7368 138.856 10.3413 138.856 12.7954V25.0661C138.934 25.4496 139.245 25.7563 139.635 25.7563H144.15C144.617 25.7563 144.928 25.4496 145.006 25.0661V10.8782C145.006 8.65409 145.006 5.66312 143.838 3.89921C142.593 1.82853 140.647 1.13831 138.623 1.13831Z"/>
<path d="M72.5329 10.4947C69.9641 10.8015 66.6168 11.0316 64.1257 12.0286C61.3233 13.2556 59.3772 15.6331 59.3772 19.2376C59.3772 23.8391 62.2575 26.0632 66.0718 26.0632C69.2635 26.0632 70.976 25.3729 73.4671 22.8421C74.2455 23.9925 74.5569 24.5293 76.0359 25.7564C76.4251 25.9098 76.7365 25.9098 77.1257 25.6797C77.982 24.9128 79.6946 23.5323 80.5509 22.7654C80.9401 22.4586 80.8623 21.9985 80.5509 21.615C79.7724 20.4647 78.9162 19.621 78.9162 17.5504V10.7248C78.9162 7.81052 79.1497 5.12631 76.97 3.13232C75.3353 1.5218 72.3772 0.908264 70.1976 0.908264C65.9161 0.908264 61.2455 2.4421 60.2335 7.58045C60.1557 8.11729 60.5449 8.42405 60.8563 8.50075L65.0599 9.03759C65.5269 9.03759 65.7605 8.57744 65.8383 8.27067C66.2275 6.50676 67.7066 5.66315 69.4191 5.66315C70.3533 5.66315 71.3653 6.04661 71.988 6.81353C72.6108 7.73383 72.5329 8.9609 72.5329 10.0346V10.4947ZM71.5988 19.621C70.8982 20.8481 69.8084 21.615 68.485 21.615C66.7724 21.615 65.7605 20.3113 65.7605 18.394C65.7605 14.6361 69.1856 13.9459 72.4551 13.9459V14.8662C72.5329 16.7068 72.5329 18.1639 71.5988 19.621Z"/>
<path d="M21.9341 21.615C21.1557 20.4647 20.2994 19.621 20.2994 17.5504V10.7248C20.2994 7.81052 20.5329 5.12631 18.3533 3.13232C16.6407 1.5218 13.7605 0.908264 11.5808 0.908264C7.29939 0.908264 2.62873 2.4421 1.61675 7.58045C1.53891 8.11729 1.92813 8.42405 2.23951 8.50075L6.59879 8.9609C7.06585 8.9609 7.29939 8.50075 7.37723 8.19398C7.76645 6.43007 9.2455 5.58646 11.0359 5.58646C11.97 5.58646 12.982 5.96992 13.6048 6.73684C14.2275 7.65714 14.1497 8.88421 14.1497 9.95789V10.4947C11.503 10.8015 8.15567 11.0316 5.66466 12.0286C2.86226 13.2556 0.916153 15.6331 0.916153 19.2376C0.916153 23.8391 3.79639 26.0632 7.61076 26.0632C10.8024 26.0632 12.515 25.3729 15.006 22.8421C15.7844 23.9925 16.0958 24.5293 17.5748 25.7564C17.9641 25.9098 18.2754 25.9098 18.6647 25.6797C19.5209 24.9128 21.2335 23.5323 22.0898 22.7654C22.3233 22.4586 22.2455 21.9985 21.9341 21.615ZM13.2156 19.621C12.515 20.8481 11.4251 21.615 10.1018 21.615C8.38921 21.615 7.45508 20.3113 7.45508 18.394C7.45508 14.6361 10.8802 13.9459 14.1497 13.9459V14.8662C13.994 16.7068 14.0718 18.1639 13.2156 19.621Z"/>
</symbol><symbol viewBox="0 0 16 16" id="arrow-right" xmlns="http://www.w3.org/2000/svg">
<path d="M3.33333 8H12.6667" stroke-linecap="round" stroke-linejoin="round"/>
<path d="M8 3.33337L12.6667 8.00004L8 12.6667" stroke-linecap="round" stroke-linejoin="round"/>
</symbol><symbol viewBox="0 0 35 35" id="at-sign" xmlns="http://www.w3.org/2000/svg">
<path d="M17.5 23.3334C20.7217 23.3334 23.3333 20.7217 23.3333 17.5001C23.3333 14.2784 20.7217 11.6667 17.5 11.6667C14.2783 11.6667 11.6667 14.2784 11.6667 17.5001C11.6667 20.7217 14.2783 23.3334 17.5 23.3334Z" stroke-width="3" stroke-linecap="round" stroke-linejoin="round"/>
<path d="M23.3333 11.6666V18.9582C23.3333 20.1186 23.7943 21.2314 24.6147 22.0518C25.4352 22.8723 26.548 23.3332 27.7083 23.3332C28.8687 23.3332 29.9815 22.8723 30.8019 22.0518C31.6224 21.2314 32.0833 20.1186 32.0833 18.9582V17.4999C32.0831 14.2085 30.9695 11.0139 28.9235 8.43568C26.8775 5.85743 24.0196 4.04711 20.8143 3.29909C17.609 2.55107 14.2449 2.90934 11.269 4.31565C8.29319 5.72196 5.88058 8.09359 4.4235 11.0449C2.96642 13.9962 2.55057 17.3537 3.24357 20.5713C3.93658 23.789 5.69767 26.6775 8.2405 28.7674C10.7833 30.8572 13.9583 32.0254 17.2493 32.082C20.5402 32.1386 23.7535 31.0803 26.3667 29.0791" stroke-width="3" stroke-linecap="round" stroke-linejoin="round"/>
</symbol><symbol viewBox="0 0 40 40" id="bar-chart" xmlns="http://www.w3.org/2000/svg">
<path d="M30 33.3333V16.6666" stroke-width="2" stroke-linecap="round" stroke-linejoin="round"/>
<path d="M20 33.3333V6.66663" stroke-width="2" stroke-linecap="round" stroke-linejoin="round"/>
<path d="M10 33.3334V23.3334" stroke-width="2" stroke-linecap="round" stroke-linejoin="round"/>
</symbol><symbol viewBox="0 0 35 35" id="codepen" xmlns="http://www.w3.org/2000/svg">
<path d="M17.5 2.91675L32.0833 12.3959V22.6042L17.5 32.0834L2.91667 22.6042V12.3959L17.5 2.91675Z" stroke-width="3" stroke-linecap="round" stroke-linejoin="round"/>
<path d="M17.5 32.0834V22.6042" stroke-width="3" stroke-linecap="round" stroke-linejoin="round"/>
<path d="M32.0833 12.3958L17.5 22.6041L2.91667 12.3958" stroke-width="3" stroke-linecap="round" stroke-linejoin="round"/>
<path d="M2.91667 22.6041L17.5 12.3958L32.0833 22.6041" stroke-width="3" stroke-linecap="round" stroke-linejoin="round"/>
<path d="M17.5 2.91675V12.3959" stroke-width="3" stroke-linecap="round" stroke-linejoin="round"/>
</symbol><symbol viewBox="0 0 40 40" id="dollar-sign" xmlns="http://www.w3.org/2000/svg">
<path d="M20 1.66663V38.3333" stroke-width="2" stroke-linecap="round" stroke-linejoin="round"/>
<path d="M28.3333 8.33337H15.8333C14.2862 8.33337 12.8025 8.94796 11.7085 10.0419C10.6146 11.1359 10 12.6196 10 14.1667C10 15.7138 10.6146 17.1975 11.7085 18.2915C12.8025 19.3855 14.2862 20 15.8333 20H24.1667C25.7138 20 27.1975 20.6146 28.2915 21.7086C29.3854 22.8025 30 24.2863 30 25.8334C30 27.3805 29.3854 28.8642 28.2915 29.9582C27.1975 31.0521 25.7138 31.6667 24.1667 31.6667H10" stroke-width="2" stroke-linecap="round" stroke-linejoin="round"/>
</symbol><symbol viewBox="0 0 35 35" id="dribbble" xmlns="http://www.w3.org/2000/svg">
<path d="M17.5 32.0834C25.5542 32.0834 32.0833 25.5542 32.0833 17.5001C32.0833 9.44593 25.5542 2.91675 17.5 2.91675C9.44585 2.91675 2.91667 9.44593 2.91667 17.5001C2.91667 25.5542 9.44585 32.0834 17.5 32.0834Z" stroke-width="3" stroke-linecap="round" stroke-linejoin="round"/>
<path d="M12.4833 4.0105C18.8563 12.8042 21.2625 17.748 24.1938 29.8522M27.8979 7.423C22.4729 13.7667 14.8604 15.6772 3.28125 15.9542M31.7188 18.7251C26.6146 17.3688 22.05 17.5292 18.6813 18.7251C14.9188 20.0667 11.375 22.8959 7.83125 27.9417" stroke-width="3" stroke-linecap="round" stroke-linejoin="round"/>
</symbol><symbol viewBox="0 0 20 33" id="facebook" xmlns="http://www.w3.org/2000/svg">
<path d="M18.25 1.91675H13.875C11.9411 1.91675 10.0865 2.68497 8.71901 4.05243C7.35156 5.41988 6.58333 7.27454 6.58333 9.20841V13.5834H2.20833V19.4167H6.58333V31.0834H12.4167V19.4167H16.7917L18.25 13.5834H12.4167V9.20841C12.4167 8.82164 12.5703 8.45071 12.8438 8.17722C13.1173 7.90373 13.4882 7.75008 13.875 7.75008H18.25V1.91675Z" stroke-width="3" stroke-linecap="round" stroke-linejoin="round"/>
</symbol><symbol viewBox="0 0 157 51" id="google" xmlns="http://www.w3.org/2000/svg">
<g clip-path="url(#jclip0_1_137)">
<path d="M38.7799 17.7925H20.4476V23.0842H33.4526C32.8258 30.5233 26.48 33.7444 20.4476 33.7444C12.77 33.7444 6.11078 27.8391 6.11078 19.5564C6.18912 11.5038 12.5349 5.36843 20.5259 5.36843C26.7151 5.36843 30.3189 9.20302 30.3189 9.20302L34.1577 5.36843C34.1577 5.36843 29.3004 0.0767011 20.3693 0.0767011C8.93114 9.39518e-06 0.235031 9.3564 0.235031 19.4797C0.235031 29.3729 8.46108 39.0361 20.6043 39.0361C31.259 39.0361 39.0933 31.9038 39.0933 21.3203C39.0933 19.0962 38.7799 17.7925 38.7799 17.7925Z"/>
<path d="M53.7435 13.9579C46.2226 13.9579 40.8169 19.7098 40.8169 26.3819C40.8169 33.2075 46.0659 39.0361 53.8219 39.0361C60.8727 39.0361 66.5918 33.7443 66.5918 26.5353C66.5918 18.1759 59.9326 13.9579 53.7435 13.9579ZM53.8219 18.8662C57.504 18.8662 61.0294 21.7804 61.0294 26.4586C61.0294 31.0601 57.5823 34.0511 53.8219 34.0511C49.748 34.0511 46.5359 30.8301 46.5359 26.3819C46.4576 22.0872 49.6697 18.8662 53.8219 18.8662Z"/>
<path d="M81.7904 13.9579C74.2695 13.9579 68.8638 19.7098 68.8638 26.3819C68.8638 33.2075 74.1128 39.0361 81.8688 39.0361C88.9197 39.0361 94.6387 33.7443 94.6387 26.5353C94.6387 18.1759 87.9795 13.9579 81.7904 13.9579ZM81.8688 18.8662C85.5509 18.8662 89.0763 21.7804 89.0763 26.4586C89.0763 31.0601 85.6292 34.0511 81.8688 34.0511C77.7949 34.0511 74.5828 30.8301 74.5828 26.3819C74.5045 22.0872 77.7166 18.8662 81.8688 18.8662Z"/>
<path d="M109.289 13.9579C102.395 13.9579 96.989 19.8631 96.989 26.5353C96.989 34.0511 103.256 39.1128 109.211 39.1128C112.893 39.1128 114.773 37.6556 116.261 36.0451V38.4992C116.261 42.794 113.598 45.4015 109.524 45.4015C105.607 45.4015 103.648 42.5639 102.943 40.9534L97.9291 42.9474C99.6527 46.5519 103.178 50.3098 109.446 50.3098C116.261 50.3098 121.51 46.0917 121.51 37.1955V14.7248H116.105V16.8722C114.538 15.1083 112.266 13.9579 109.289 13.9579ZM109.759 18.8662C113.128 18.8662 116.575 21.7037 116.575 26.5353C116.575 31.4436 113.128 34.1278 109.681 34.1278C105.998 34.1278 102.551 31.2135 102.551 26.5353C102.63 21.7037 106.155 18.8662 109.759 18.8662Z"/>
<path d="M145.484 13.8812C138.981 13.8812 133.497 18.9428 133.497 26.3819C133.497 34.2812 139.608 38.9594 146.11 38.9594C151.516 38.9594 154.885 36.0451 156.843 33.4376L152.378 30.5233C151.203 32.2872 149.322 33.9744 146.11 33.9744C142.506 33.9744 140.861 32.0571 139.843 30.1398L157 23.1609L156.138 21.0902C154.415 17.2556 150.576 13.8812 145.484 13.8812ZM145.64 18.7127C147.991 18.7127 149.636 19.9398 150.419 21.397L138.903 26.0751C138.433 22.4706 141.958 18.7127 145.64 18.7127Z"/>
<path d="M125.271 38.2692H130.912V1.30377H125.271V38.2692Z"/>
</g>
<defs>
<clipPath id="jclip0_1_137">
<rect width="157" height="51"/>
</clipPath>
</defs>
</symbol><symbol viewBox="0 0 35 35" id="instagram" xmlns="http://www.w3.org/2000/svg">
<path d="M24.7917 2.91675H10.2083C6.18126 2.91675 2.91667 6.18134 2.91667 10.2084V24.7917C2.91667 28.8188 6.18126 32.0834 10.2083 32.0834H24.7917C28.8187 32.0834 32.0833 28.8188 32.0833 24.7917V10.2084C32.0833 6.18134 28.8187 2.91675 24.7917 2.91675Z" stroke-width="3" stroke-linecap="round" stroke-linejoin="round"/>
<path d="M23.3333 16.5812C23.5133 17.7949 23.306 19.0344 22.7409 20.1235C22.1758 21.2126 21.2817 22.0958 20.1857 22.6474C19.0897 23.199 17.8477 23.391 16.6364 23.1961C15.425 23.0012 14.3059 22.4292 13.4383 21.5616C12.5707 20.6941 11.9988 19.575 11.8039 18.3636C11.6089 17.1522 11.8009 15.9102 12.3526 14.8142C12.9042 13.7183 13.7874 12.8242 14.8764 12.2591C15.9655 11.694 17.2051 11.4866 18.4188 11.6666C19.6568 11.8502 20.8029 12.4271 21.6879 13.3121C22.5729 14.197 23.1498 15.3432 23.3333 16.5812Z" stroke-width="3" stroke-linecap="round" stroke-linejoin="round"/>
<path d="M25.5208 9.47925H25.5354" stroke-width="3" stroke-linecap="round" stroke-linejoin="round"/>
</symbol><symbol viewBox="0 0 157 43" id="netflix" xmlns="http://www.w3.org/2000/svg">
<path d="M22.0145 39.3278C19.6642 39.7113 17.3139 39.8646 14.8069 40.1714L7.28596 18.5443V41.0917C4.93566 41.3218 2.82039 41.6285 0.548431 42.012V0.675171H6.8159L15.3553 24.1428V0.675171H22.0145V39.3278ZM35.0195 15.8601C37.6048 15.8601 41.522 15.7067 43.8723 15.7067V22.1489C40.9736 22.1489 37.5265 22.1489 35.0195 22.3022V31.8887C38.8583 31.6586 42.7755 31.3519 46.6926 31.1985V37.4105L28.4387 38.791V0.675171H46.6926V7.11728H35.0195C35.0195 7.19397 35.0195 15.8601 35.0195 15.8601ZM71.1358 7.19397H64.3199V36.8737C62.1263 36.8737 59.8543 36.8737 57.7391 36.9504V7.19397H50.9232V0.675171H71.2141C71.1358 0.675171 71.1358 7.19397 71.1358 7.19397ZM81.8688 15.4H90.8783V21.8421H81.8688V36.4902H75.3663V0.675171H93.777V7.11728H81.8688C81.8688 7.19397 81.8688 15.4 81.8688 15.4ZM104.51 30.815C108.27 30.8917 112.031 31.1985 115.713 31.3519V37.7173C109.837 37.3338 103.962 37.027 97.9292 36.8737V0.675171H104.51V30.815ZM121.275 38.1774C123.391 38.3308 125.584 38.4075 127.778 38.6376V0.675171H121.275V38.1774ZM156.608 0.675171L148.226 20.3083L156.608 41.9353C154.101 41.6286 151.673 41.1684 149.166 40.7849L144.465 28.821L139.608 39.7879C137.258 39.4045 134.907 39.2511 132.557 38.9443L141.018 20.0782L133.34 0.675171H140.391L144.7 11.4887L149.322 0.675171H156.608Z"/>
</symbol><symbol viewBox="0 0 40 40" id="search" xmlns="http://www.w3.org/2000/svg">
<path d="M18.3333 31.6667C25.6971 31.6667 31.6667 25.6971 31.6667 18.3333C31.6667 10.9695 25.6971 5 18.3333 5C10.9695 5 5 10.9695 5 18.3333C5 25.6971 10.9695 31.6667 18.3333 31.6667Z" stroke-width="2" stroke-linecap="round" stroke-linejoin="round"/>
<path d="M35 35L27.75 27.75" stroke-width="2" stroke-linecap="round" stroke-linejoin="round"/>
</symbol><symbol viewBox="0 0 157 51" id="shopify" xmlns="http://www.w3.org/2000/svg">
<g clip-path="url(#nclip0_1_146)">
<path d="M33.6876 11.8872C33.6876 11.6571 33.4526 11.5804 33.2959 11.5037C33.1392 11.5037 29.7705 11.2737 29.7705 11.2737C29.7705 11.2737 27.4202 8.97292 27.1851 8.74284C26.9501 8.51276 26.4017 8.58946 26.245 8.58946C26.245 8.58946 25.6966 8.74284 24.9132 8.97292C24.1297 6.74885 22.7979 4.75487 20.3693 4.75487H20.1342C19.4291 3.83457 18.5674 3.45111 17.8623 3.45111C12.2216 3.45111 9.55788 10.3534 8.69611 13.8812C6.5025 14.5714 4.93563 15.0316 4.77894 15.0316C3.60379 15.415 3.52545 15.415 3.36876 16.5654C3.21208 17.5624 0 41.8737 0 41.8737L24.9915 46.4752L38.5449 43.6376C38.4666 43.5609 33.766 12.1173 33.6876 11.8872ZM23.5813 9.43307C22.9546 9.66314 22.2495 9.81652 21.4661 10.0466V9.58645C21.4661 8.206 21.231 7.13231 20.9177 6.21201C22.1712 6.51878 23.0329 7.89923 23.5813 9.43307ZM19.4291 6.59547C19.7425 7.43908 19.9775 8.66615 19.9775 10.2767V10.5067C18.6457 10.8902 17.0788 11.3504 15.5903 11.8105C16.4521 8.74284 18.019 7.13231 19.4291 6.59547ZM17.7056 5.06164C17.9406 5.06164 18.1756 5.13833 18.4107 5.29171C16.6088 6.13532 14.6502 8.206 13.8668 12.424C12.6916 12.8075 11.5165 13.1143 10.4197 13.4977C11.4381 10.2767 13.7101 5.06164 17.7056 5.06164Z"/>
<path d="M33.3743 11.5804C33.2176 11.5804 29.8488 11.3503 29.8488 11.3503C29.8488 11.3503 27.4985 9.0496 27.2635 8.81952C27.1852 8.74283 27.0285 8.66614 26.8718 8.66614L24.9915 46.4752L38.5449 43.6376C38.5449 43.6376 33.766 12.194 33.766 11.9639C33.6877 11.6571 33.531 11.5804 33.3743 11.5804Z"/>
<path d="M20.3693 18.8662L18.7241 23.6978C18.7241 23.6978 17.2355 22.9309 15.4336 22.9309C12.77 22.9309 12.6916 24.5414 12.6916 24.9248C12.6916 27.1489 18.5674 27.9925 18.5674 33.2075C18.5674 37.2722 15.9037 39.9564 12.3783 39.9564C8.06938 39.9564 5.87576 37.3489 5.87576 37.3489L7.05091 33.6677C7.05091 33.6677 9.32287 35.585 11.2031 35.585C12.4566 35.585 12.9267 34.588 12.9267 33.8978C12.9267 30.9835 8.06938 30.8301 8.06938 26.0752C8.06938 22.0872 11.0464 18.176 16.9222 18.176C19.2725 18.2527 20.3693 18.8662 20.3693 18.8662Z" fill="white"/>
<path d="M54.2919 27.9925C52.9601 27.3023 52.255 26.6887 52.255 25.8451C52.255 24.7714 53.1951 24.0812 54.762 24.0812C56.4855 24.0812 58.0524 24.7714 58.0524 24.7714L59.3059 21.0902C59.3059 21.0902 58.1308 20.2466 54.8403 20.2466C50.2181 20.2466 46.9277 22.8542 46.9277 26.5354C46.9277 28.606 48.4162 30.2166 50.4531 31.3669C52.0983 32.2872 52.6467 32.9008 52.6467 33.8978C52.6467 34.8948 51.8633 35.6617 50.2964 35.6617C48.0245 35.6617 45.9092 34.5113 45.9092 34.5113L44.6557 38.1158C44.6557 38.1158 46.6143 39.4196 49.9047 39.4196C54.6836 39.4196 58.1307 37.1188 58.1307 32.9775C58.1307 30.7534 56.4072 29.1429 54.2919 27.9925ZM73.3294 20.2466C70.9791 20.2466 69.0988 21.3203 67.6886 23.0075H67.6103L69.6472 12.5775H64.3199L59.1492 39.1128H64.4766L66.2785 29.9865C66.9835 26.5354 68.7854 24.388 70.509 24.388C71.6841 24.388 72.1542 25.1549 72.1542 26.3053C72.1542 26.9955 72.0759 27.9158 71.9192 28.606L69.8822 39.0361H75.2096L77.3249 28.2993C77.5599 27.1489 77.7166 25.7684 77.7166 24.9248C77.6382 22.0105 76.0714 20.2466 73.3294 20.2466ZM89.7031 20.2466C83.279 20.2466 79.0484 25.9218 79.0484 32.2105C79.0484 36.2752 81.6338 39.4963 86.4127 39.4963C92.6802 39.4963 96.9107 33.9745 96.9107 27.5323C96.9107 23.7745 94.7171 20.2466 89.7031 20.2466ZM87.1178 35.4316C85.3159 35.4316 84.5325 33.8978 84.5325 32.0572C84.5325 29.0662 86.0993 24.1579 88.998 24.1579C90.8783 24.1579 91.505 25.7684 91.505 27.3023C91.505 30.5233 89.9381 35.4316 87.1178 35.4316ZM110.542 20.2466C106.939 20.2466 104.902 23.3143 104.902 23.3143H104.823L105.137 20.5534H100.436C100.201 22.4707 99.8094 25.3083 99.3393 27.4557L95.6572 46.5519H100.985L102.473 38.806H102.551C102.551 38.806 103.648 39.4963 105.685 39.4963C111.953 39.4963 116.026 33.2075 116.026 26.9188C116.026 23.3143 114.46 20.2466 110.542 20.2466ZM105.45 35.5083C104.04 35.5083 103.257 34.7414 103.257 34.7414L104.118 29.8331C104.745 26.612 106.469 24.388 108.349 24.388C109.994 24.388 110.464 25.8451 110.464 27.2256C110.464 30.7534 108.427 35.5083 105.45 35.5083ZM123.626 12.7308C121.902 12.7308 120.57 14.0346 120.57 15.7218C120.57 17.2557 121.589 18.3293 123.077 18.3293H123.156C124.801 18.3293 126.211 17.2557 126.289 15.3384C126.289 13.8045 125.271 12.7308 123.626 12.7308ZM116.183 39.0361H121.511L125.114 20.5534H119.787L116.183 39.0361ZM138.668 20.6301H134.986L135.142 19.7865C135.456 18.0226 136.552 16.412 138.276 16.412C139.216 16.412 140 16.6421 140 16.6421L141.018 12.5775C141.018 12.5775 140.078 12.1173 138.119 12.1173C136.239 12.1173 134.359 12.6542 132.87 13.8812C131.068 15.4151 130.207 17.5624 129.815 19.7865L129.658 20.6301H127.151L126.368 24.5414H128.875L126.054 39.1128H131.382L134.202 24.5414H137.884L138.668 20.6301ZM151.438 20.6301C151.438 20.6301 148.069 28.8361 146.58 33.2842H146.502C146.424 31.8271 145.17 20.6301 145.17 20.6301H139.529L142.742 37.579C142.82 37.9624 142.742 38.1925 142.663 38.4226C142.036 39.5729 141.018 40.7233 139.764 41.5669C138.746 42.2572 137.649 42.7173 136.787 43.0241L138.276 47.4722C139.373 47.2421 141.566 46.3985 143.525 44.6346C145.954 42.4105 148.226 38.9594 150.498 34.2812L157 20.6301H151.438Z"/>
</g>
<defs>
<clipPath id="nclip0_1_146">
<rect width="157" height="51"/>
</clipPath>
</defs>
</symbol><symbol viewBox="0 0 35 31" id="twitter" xmlns="http://www.w3.org/2000/svg">
<path d="M33.5417 2.37502C32.1451 3.36009 30.5989 4.11351 28.9625 4.60627C28.0842 3.59639 26.9169 2.88061 25.6186 2.55574C24.3202 2.23087 22.9534 2.31259 21.703 2.78984C20.4526 3.26709 19.379 4.11685 18.6273 5.22419C17.8755 6.33152 17.4821 7.64301 17.5 8.98127V10.4396C14.9372 10.5061 12.3977 9.93766 10.1077 8.78504C7.81775 7.63242 5.84837 5.93136 4.37499 3.83335C4.37499 3.83335 -1.45834 16.9583 11.6667 22.7917C8.66326 24.8304 5.08543 25.8526 1.45833 25.7083C14.5833 33 30.625 25.7083 30.625 8.93752C30.6237 8.5313 30.5846 8.12609 30.5083 7.7271C31.9967 6.25928 33.047 4.40606 33.5417 2.37502V2.37502Z" stroke-width="3" stroke-linecap="round" stroke-linejoin="round"/>
</symbol></svg>